<?xml version="1.0" encoding="utf-8"?>
<!-- Generator: Adobe Illustrator 16.0.0, SVG Export Plug-In . SVG Version: 6.00 Build 0)  -->
<!DOCTYPE svg PUBLIC "-//W3C//DTD SVG 1.1//EN" "http://www.w3.org/Graphics/SVG/1.1/DTD/svg11.dtd">
<svg version="1.1" id="Layer_1" xmlns:serif="http://www.serif.com/"
	 xmlns="http://www.w3.org/2000/svg" xmlns:xlink="http://www.w3.org/1999/xlink" x="0px" y="0px" width="1080px" height="1080px"
	 viewBox="0 0 1080 1080" enable-background="new 0 0 1080 1080" xml:space="preserve">
<g>
	<path fill="#27AFAC" d="M190.047,670.428c-21.125-9.796-41.097-21.12-59.346-34.031C72.066,594.901,9.828,519.032,95.457,469.252
		c94.023-54.657,216.142-44.744,305.884-108.111c44.747-31.595,74.675-78.229,99.762-125.362
		c25.087-47.131,46.736-96.385,79.851-138.874c37.632-48.289,101.081-95.68,168.06-85.691
		c48.512,7.232,93.891,26.986,130.575,57.897c52.434,44.181,84.061,106.083,99.751,169.963
		c16.938,68.971,6.134,140.12-18.801,207.123c-26.087,70.097-76.527,131.907-141.669,173.608
		c-54.836,35.104-118.611,55.703-182.769,71.336c-73.948,18.021-150.076,30.012-226.428,28.121
		C337.279,717.472,257.752,701.813,190.047,670.428z"/>
	<path fill="#27AFAC" d="M427.622,126.345c13.66,23.663-23.444,70.663-82.877,104.978c-59.434,34.314-118.692,42.948-132.355,19.283
		c-13.66-23.662,23.444-70.663,82.877-104.977C354.7,111.314,413.958,102.68,427.622,126.345z"/>
	<g>
		<rect x="34.581" y="240.247" opacity="0.35" fill="#223B59" width="234.568" height="314.276"/>
		<g>
			<rect x="43.624" y="233.153" fill="#FFFFFF" width="234.568" height="314.279"/>
			<g>
				<rect x="90.746" y="324.954" fill="#8C1559" width="20.458" height="170.851"/>
				<rect x="122.548" y="448.884" fill="#8C1559" width="20.459" height="46.921"/>
				<rect x="154.354" y="403.002" fill="#B71D67" width="20.459" height="92.803"/>
				<rect x="186.157" y="370.294" fill="#8C1559" width="20.458" height="125.511"/>
				<rect x="217.959" y="324.954" fill="#D62B85" width="20.459" height="170.851"/>
			</g>
			
				<line fill="none" stroke="#126466" stroke-width="1.0835" stroke-miterlimit="10" x1="72.804" y1="274.179" x2="72.804" y2="495.069"/>
			
				<line fill="none" stroke="#126466" stroke-width="1.0835" stroke-miterlimit="10" x1="90.985" y1="511.43" x2="253.698" y2="511.43"/>
		</g>
	</g>
	<g>
		<rect x="823.627" y="212.146" opacity="0.35" fill="#223B59" width="245.073" height="270.938"/>
		<rect x="816.706" y="203.708" fill="#FFFFFF" width="245.077" height="270.938"/>
		<g>
			<path fill="#D62B85" d="M922.75,347.776c3.681-0.321,6.83-0.729,9.446-1.213c2.62-0.489,4.817-1.04,6.594-1.654
				c1.772-0.616,3.171-1.289,4.202-2.019c1.026-0.729,1.813-1.5,2.361-2.311c0.548-0.81,0.897-1.662,1.046-2.555
				c0.148-0.892,0.221-1.792,0.221-2.7c0-1.166-0.213-2.227-0.643-3.185c-0.434-0.957-1.004-1.776-1.72-2.455
				c-0.715-0.681-1.547-1.209-2.51-1.584c-0.962-0.371-1.988-0.559-3.084-0.559c-0.996,0-1.958,0.164-2.886,0.487
				c-0.928,0.325-1.765,0.812-2.51,1.46s-1.351,1.46-1.817,2.432c-0.465,0.974-0.712,2.107-0.746,3.404h-17.508
				c0-3.157,0.582-6.085,1.742-8.783c1.159-2.696,2.878-5.033,5.148-7.006c2.271-1.974,5.088-3.52,8.453-4.64
				c3.366-1.118,7.271-1.677,11.713-1.677c4.776,0,8.872,0.559,12.287,1.677c3.415,1.12,6.217,2.666,8.404,4.64
				c2.189,1.974,3.795,4.31,4.825,7.006c1.026,2.698,1.54,5.626,1.54,8.783c0,2.53-0.528,5.012-1.59,7.443
				c-1.061,2.432-2.646,4.647-4.749,6.64c-2.106,1.995-4.75,3.682-7.933,5.058c-3.184,1.379-6.914,2.265-11.191,2.651v7.784H924.34
				L922.75,347.776z M933.889,389.614c-2.156,0-4.035-0.287-5.644-0.861s-2.937-1.333-3.981-2.271
				c-1.042-0.941-1.822-2.012-2.335-3.211c-0.518-1.2-0.772-2.427-0.772-3.68s0.274-2.481,0.822-3.681
				c0.547-1.202,1.35-2.271,2.41-3.21c1.062-0.939,2.389-1.698,3.979-2.272c1.593-0.572,3.434-0.859,5.521-0.859
				c2.091,0,3.928,0.287,5.521,0.859c1.59,0.574,2.916,1.333,3.978,2.272c1.061,0.939,1.863,2.002,2.411,3.185
				c0.547,1.183,0.821,2.401,0.821,3.654c0,1.288-0.255,2.531-0.769,3.731c-0.518,1.199-1.293,2.27-2.339,3.211
				c-1.046,0.938-2.361,1.696-3.954,2.271C937.969,389.327,936.078,389.614,933.889,389.614z"/>
		</g>
		<path fill="#197F7F" d="M970.242,267.283c0,10.353-14.952,18.746-33.392,18.746c-18.443,0-33.396-8.393-33.396-18.746
			c0-10.355,14.952-18.748,33.396-18.748C955.29,248.535,970.242,256.928,970.242,267.283z"/>
		<ellipse fill="#8C1559" cx="1011.341" cy="327.091" rx="33.394" ry="18.748"/>
		<path fill="#B71D67" d="M1030.41,411.969c0,10.355-14.952,18.748-33.396,18.748c-18.439,0-33.392-8.393-33.392-18.748
			c0-10.353,14.952-18.746,33.392-18.746C1015.458,393.223,1030.41,401.616,1030.41,411.969z"/>
		<ellipse fill="#0C4C4A" cx="885.992" cy="411.969" rx="33.393" ry="18.748"/>
		<ellipse fill="#126466" cx="863.073" cy="327.091" rx="33.392" ry="18.748"/>
	</g>
	<g>
		<rect x="422.792" y="71.613" opacity="0.35" fill="#223B59" width="234.57" height="314.276"/>
		<rect x="431.23" y="63.175" fill="#FFFFFF" width="234.57" height="314.276"/>
		<rect x="502.137" y="98.225" fill="#197F7F" width="93.297" height="11.024"/>
		<rect x="462.653" y="254.954" fill="#197F7F" width="172.265" height="9.842"/>
		<g>
			<rect x="463.307" y="155.991" fill="#8C1559" width="48.626" height="10.558"/>
			<rect x="585.639" y="155.991" fill="#8C1559" width="48.625" height="10.558"/>
		</g>
		<rect x="524.475" y="180.264" fill="#0C4C4A" width="48.622" height="10.559"/>
		<rect x="524.475" y="339.03" fill="#D62B85" width="48.622" height="10.558"/>
		<rect x="588.611" y="339.03" fill="#D62B85" width="48.623" height="10.558"/>
		<rect x="460.861" y="339.03" fill="#D62B85" width="48.623" height="10.558"/>
		<g>
			<line fill="#8C1559" x1="548.785" y1="165.422" x2="548.785" y2="114.712"/>
			<g>
				
					<line fill="none" stroke="#39514E" stroke-width="0.5418" stroke-miterlimit="10" x1="548.785" y1="162.324" x2="548.785" y2="114.712"/>
				<g>
					<polygon fill="#39514E" points="548.785,165.422 550.569,161.056 548.785,162.092 547.002,161.056 					"/>
				</g>
			</g>
		</g>
		<g>
			<g>
				<line fill="#8C1559" x1="489.108" y1="150.715" x2="524.965" y2="114.856"/>
				<g>
					
						<line fill="none" stroke="#39514E" stroke-width="0.5418" stroke-miterlimit="10" x1="491.299" y1="148.524" x2="524.965" y2="114.856"/>
					<g>
						<polygon fill="#39514E" points="489.108,150.715 493.457,148.889 491.463,148.36 490.934,146.366 						"/>
					</g>
				</g>
			</g>
			<g>
				<line fill="#8C1559" x1="608.463" y1="150.715" x2="572.605" y2="114.856"/>
				<g>
					
						<line fill="none" stroke="#39514E" stroke-width="0.5418" stroke-miterlimit="10" x1="606.272" y1="148.524" x2="572.605" y2="114.856"/>
					<g>
						<polygon fill="#39514E" points="608.463,150.715 606.637,146.366 606.108,148.36 604.114,148.889 						"/>
					</g>
				</g>
			</g>
		</g>
		<g>
			<line fill="#8C1559" x1="548.785" y1="247.435" x2="548.785" y2="196.723"/>
			<g>
				
					<line fill="none" stroke="#39514E" stroke-width="0.5418" stroke-miterlimit="10" x1="548.785" y1="244.336" x2="548.785" y2="196.723"/>
				<g>
					<polygon fill="#39514E" points="548.785,247.435 550.569,243.068 548.785,244.104 547.002,243.068 					"/>
				</g>
			</g>
		</g>
		<g>
			<line fill="#8C1559" x1="548.785" y1="322.611" x2="548.785" y2="271.901"/>
			<g>
				
					<line fill="none" stroke="#39514E" stroke-width="0.5418" stroke-miterlimit="10" x1="548.785" y1="319.513" x2="548.785" y2="271.901"/>
				<g>
					<polygon fill="#39514E" points="548.785,322.611 550.569,318.245 548.785,319.281 547.002,318.245 					"/>
				</g>
			</g>
		</g>
		<g>
			<g>
				<line fill="#8C1559" x1="611.082" y1="322.611" x2="611.082" y2="271.901"/>
				<g>
					
						<line fill="none" stroke="#39514E" stroke-width="0.5418" stroke-miterlimit="10" x1="611.082" y1="319.513" x2="611.082" y2="271.901"/>
					<g>
						<polygon fill="#39514E" points="611.082,322.611 612.866,318.245 611.082,319.281 609.299,318.245 						"/>
					</g>
				</g>
			</g>
			<g>
				<line fill="#8C1559" x1="486.488" y1="322.611" x2="486.488" y2="271.901"/>
				<g>
					
						<line fill="none" stroke="#39514E" stroke-width="0.5418" stroke-miterlimit="10" x1="486.488" y1="319.513" x2="486.488" y2="271.901"/>
					<g>
						<polygon fill="#39514E" points="486.488,322.611 488.272,318.245 486.488,319.281 484.705,318.245 						"/>
					</g>
				</g>
			</g>
		</g>
	</g>
	<g>
		<path opacity="0.3" fill="#223B59" d="M366.785,978.061c0,0-175.741,0.59-144.593,31.198
			c31.152,30.608,63.811,33.552,118.81,32.08c55.003-1.472,118.597-22.075,228.6-23.547c110.003-1.472,218.287,58.863,302.511-1.472
			c84.22-60.335-113.44-63.278-201.103-52.977C583.353,973.646,366.785,978.061,366.785,978.061z"/>
		<g>
			<g>
				<g>
					<g>
						<path fill="#EABF73" d="M439.334,591.958c0,0,4.518,25.768,9.857,31.685c0,0-0.616,3.243,1.438,4.963l1.232,11.069
							c0,0-4.313,4.963-4.518,7.062c-0.206,2.1,1.643,4.198,1.643,4.198l3.286-0.57c0,0-2.464,4.389-2.464,5.724
							c0,1.338,1.027,2.482,4.723,2.293c0,0-0.411,1.335,3.491,2.479c3.901,1.145,21.565-13.743,22.592-20.615
							c1.026-6.868,0-23.094-1.027-25.573c-1.027-2.483-23.208-30.35-23.208-30.35L439.334,591.958z"/>
						<path fill="#F7D694" d="M447.753,598.7c0,0,0.179,8.525,6.833,12.184c4.351,2.396,8.081,9.545,8.081,9.545
							s-2.799,17.082,2.955,17.082c5.75,0,8.75-19.546,8.75-22.216c0-2.669-3.898-14.37-5.465-18.648
							c-1.567-4.282-12.53-12.324-12.53-12.324l-8.625,4.928V598.7z"/>
					</g>
					<path fill="#DDD6A6" d="M462.379,585.182c0,0,2.943,3.98,2.38,5.399c-0.909,2.297-6.529,7.431-13.165,11.325
						c-6.636,3.89-13.503,4.35-14.728,3.928c-1.229-0.422-3.122-4.537-3.122-4.537L462.379,585.182z"/>
				</g>
				<path fill="#0C4C4A" d="M361.062,317.596c0,0,40.123-5.551,48.687,31.063c6.59,28.175,12.237,120.562,12.237,120.562
					l42.142,115.497c3.309,6.252-29.3,23.502-32.604,17.25c0,0-53.623-106.002-58.532-120.238
					C368.082,467.493,326.004,336.584,361.062,317.596z"/>
			</g>
			<g>
				<path fill="#8C1559" d="M750.432,342.386c-4.088,29.897-63.633,111.63-80.433,127.347c-8.819,8.25-68.625,39.944-99.31,48.242
					c-8.564,2.316-24.98-29.157-17.094-33.217c0,0,86.57-51.218,92.419-56.475c5.853-5.257,36.02-90.871,49.835-103.042
					C718.613,305.187,754.52,312.488,750.432,342.386z"/>
				<path fill="#DDD6A6" d="M569.803,497.615c4.115,8.548,5.024,16.648,2.027,18.09c-3,1.445-8.766-4.316-12.88-12.861
					c-4.118-8.549-5.023-16.648-2.026-18.092C559.92,483.309,565.688,489.068,569.803,497.615z"/>
				<g>
					<path fill="#720E4C" d="M652.775,423.7c3.94,2.439,7.785,4.774,11.249,7.672c3.598,2.734,6.731,5.957,9.994,9.25
						c0.235,0.244,0.627,0.248,0.87,0.009c0.194-0.19,0.232-0.477,0.126-0.709c-2.084-4.309-5.403-7.898-9.073-10.954
						c-3.799-2.892-8.043-5.323-12.705-6.394c-0.331-0.076-0.662,0.131-0.738,0.462C652.438,423.301,652.56,423.565,652.775,423.7z"
						/>
					<path fill="#720E4C" d="M651.281,426.278c1.643,4.353,3.909,8.344,6.123,12.363c2.403,3.911,4.753,7.853,7.73,11.429
						c0.217,0.263,0.605,0.299,0.867,0.08c0.209-0.173,0.273-0.452,0.183-0.692c-1.639-4.354-3.909-8.343-6.122-12.362
						c-2.404-3.911-4.758-7.851-7.731-11.43c-0.217-0.262-0.604-0.298-0.867-0.08C651.255,425.758,651.19,426.039,651.281,426.278z"
						/>
				</g>
			</g>
			<g>
				<g>
					<path fill="#1A1635" d="M750.804,925.13c-0.285-0.791-28.749,2.225-28.749,2.225s-11.842,12.515-24.563,21.015
						c-14.211,9.495-31.977,10.32-34.765,21.174c-2.787,10.849,2.632,10.549,2.632,10.549s20.356,2.388,32.034-1.856
						c11.679-4.243,28.209-9.682,28.209-9.682l1.544,4.537c10.184,1.699,20.147-0.385,29.939-5.396
						C757.086,967.694,761.942,955.929,750.804,925.13z"/>
					<path fill="#292551" d="M730.421,926.507c-4.7,0.46-8.366,0.848-8.366,0.848s-11.842,12.515-24.563,21.015
						c-14.1,9.423-31.691,10.32-34.681,20.941C696.534,978.057,723.408,955.632,730.421,926.507z"/>
				</g>
				<path fill="#14273A" d="M770.301,591.071c0,0-19.06,120.24-21.444,146.514c-2.384,26.273,5.856,65.114,7.226,86.521
					c2.993,46.915-3.674,99.488-3.674,99.488c2.594,11.982-45.097,22.691-47.69,10.708c0,0,2.461-12.274-3.536-82.25
					c-2.997-34.936-11.979-77.06-19.965-123.776c-7.989-46.717-3.799-166.953-3.799-166.953s20.801-32.388,54.239-25.569
					C765.099,542.571,770.301,591.071,770.301,591.071z"/>
				<g opacity="0.5">
					<path fill="#0A1721" d="M736.615,936.846c0.24-3.406,5.872-83.676,4.689-99.72c-0.594-8.058-3.932-25.92-7.461-44.831
						c-3.461-18.52-7.035-37.67-7.655-46.059c-1.213-16.481,8.663-148.894,8.762-150.225l-2.103-0.16
						c-0.411,5.457-9.986,133.907-8.762,150.537c0.627,8.506,4.213,27.714,7.682,46.291c3.369,18.021,6.849,36.658,7.434,44.603
						c1.172,15.888-4.631,98.583-4.692,99.416L736.615,936.846z"/>
				</g>
			</g>
			<g>
				<g>
					<path fill="#1A1635" d="M817.535,960.785c0,0-8.131,10.67-33.795,6.096c0,0-8.131,23.375-19.566,29.22
						c-11.431,5.845-41.921,17.025-43.446,27.187c-1.524,10.165,18.296,12.96,41.161,11.18c22.87-1.775,39.637-18.546,39.637-18.546
						l2.289,2.795c0,0,15.245-3.813,21.596-10.419S817.535,960.785,817.535,960.785z"/>
					<path fill="#292551" d="M737.875,1020.701c36.825,2.213,67.281-22.162,68.863-54.019c-5.259,1.399-12.697,2.034-22.998,0.198
						c0,0-8.131,23.375-19.566,29.22c-7.582,3.879-23.523,10.108-33.863,16.827c0.076,0.343,0.152,0.686,0.221,1.035
						C731.25,1017.598,734.17,1020.48,737.875,1020.701z"/>
				</g>
				<g>
					<path fill="#223B59" d="M805.533,610.036c-0.057,2.958-9.8,129.85-2.867,169.987c6.933,40.139,23.668,52.935,21.941,163.69
						l-1.68,23.992c2.308,11.583-43.124,20.642-45.433,9.058c0,0,4.316-43.561-8.194-94.959
						c-12.512-51.395-57.486-191.576-62.122-274.73C702.664,526.067,806.986,536.879,805.533,610.036z"/>
					<g>
						<path opacity="0.5" fill="#0A1721" d="M813.074,979.715c0.578,0,1.046-0.479,1.057-1.088
							c0.012-0.825,1.438-83.242-1.479-112.395c-3.658-36.586-16.725-84.657-20.642-98.522
							c-7.944-28.125,0.692-160.85,0.779-162.184c0.038-0.612-0.396-1.146-0.981-1.183c-0.563-0.104-1.083,0.414-1.125,1.026
							c-0.357,5.479-8.746,134.462-0.696,162.972c3.905,13.819,16.927,61.723,20.569,98.123
							c2.898,29.015,1.479,111.292,1.464,112.121c-0.011,0.615,0.453,1.117,1.034,1.129
							C813.063,979.715,813.07,979.715,813.074,979.715z"/>
					</g>
				</g>
			</g>
			<g>
				<path fill="#FFFFFF" d="M754.451,293.102c0,0,52.212,14.487,62.141,27.205c9.926,12.719,16.885,44.958,10.99,74.74
					C821.688,424.83,803.4,496.9,803.4,496.9s16.188,70.526,13.808,83.859c-3.716,20.82-147.954,38.662-146.468,10.408
					c1.486-28.251,13.96-99.355,13.96-99.355s-7.411-77.247-6.624-94.525c0.783-17.276,10.549-57.042,19.976-68.82
					C707.475,316.687,754.451,293.102,754.451,293.102z"/>
				<path fill="#FCEC9D" d="M723.808,335.071c-8.563-6.75-6.966-14.628,3.86-28.359c10.826-13.732,26.543-19.393,35.104-12.643
					c8.56,6.75,12.731,11.661,1.904,25.394C753.854,333.194,732.368,341.819,723.808,335.071z"/>
				<g>
					<path fill="#1A1635" d="M762.794,285.81c0,0,11.112-12.812,21.372-34.875c10.256-22.063,6.16-53.742-22.479-68.224
						c-28.639-14.48-56.255-2.415-64.64,20.904C688.663,226.932,707.639,258.811,762.794,285.81z"/>
					<path fill="#F7D694" d="M760.991,262.738c0,0.93,6.678,28.063,7.009,36.45c0.844,21.607-42.61,40.855-44.687,23.084
						c-0.635-5.439-1.757-32.034-1.757-32.034L760.991,262.738z"/>
					<path fill="#CE8865" d="M760.417,269.251c0,0-4.004,35.889-27.392,39.226c-12.925,1.842-12.457-30.415-12.457-30.415
						S719.34,256.074,760.417,269.251z"/>
					<g>
						<path fill="#F7D694" d="M744.499,189.744c0,0-26.981-5.457-40.937,14.03c-13.953,19.487-8.169,32.373-8.553,38.061
							c-0.389,5.688-8.864,50,11.442,53.32c22.55,3.687,43.478-10.408,49.782-25.102c0,0,15.941,2.029,20.539-10.212
							c4.594-12.239-6.762-23.809-15.425-11.412C761.349,248.429,780.721,200.607,744.499,189.744z"/>
						<path fill="#CE8865" d="M762.189,260.046c0,0,1.582-13.699,8.518-11.216c6.937,2.483,2.005,16.781-7.7,16.566l2.217-4.63
							L762.189,260.046z"/>
					</g>
					<path fill="#1A1635" d="M761.349,248.429c0,0-1.711,5.63-1.909,7.423c-0.197,1.793-4.779,0.2-2.388-11.155
						c2.388-11.355-9.678-16.078-10.275-22.453c-0.597-6.376,10.275-14.801,8.48-17.391c0,0,2.636-7.13-16.949-5.719
						c-19.588,1.411-30.354,2.824-34.058-2.647c-3.703-5.47-7.411-23.997,30.176-22.586
						C772.008,175.313,781.568,217.263,761.349,248.429z"/>
					<path fill="#1A1635" d="M703.159,211.07c-0.434-2.173,7.472-5.664,11.469-7.146c-9.107,0.812-26.977,4.353-27.327,2.432
						c-0.35-1.918,3.34-2.447,6.149-3.599c-3.665-0.962-3.917-1.888-5.901-3.455c-2.545-2.012-5.982-9.051-5.442-9.771
						s4.594,2.612,8.055,3.194c-2.571-3.875-3.293-8.552-3.327-13.184c-0.08-10.125,7.411-17.39,9.115-16.932
						c0.932,0.457,0.741,6.429,1.113,9.644c0.917-3.274,4.149-8.429,5.545-7.864c1.396,0.564,3.445,5.126,7.039,7.463
						c3.715,2.418,2.183-3.244,3.529-4.725c1.346-1.481,23.375,4.28,32.247,8.537c5.644,2.708,14.903,6.725,17.06,13.148
						c1.962,5.851,3.464,18.909-1.064,20.37c-1.982,0.641-18.307-5.187-23.384-3.989
						C724.112,208.482,703.479,212.662,703.159,211.07z"/>
					<g>
						<g>
							<path fill="#1A1635" d="M714.423,241.846c-0.251,2.451,0.855,4.544,2.476,4.677s3.141-1.747,3.396-4.196
								c0.251-2.451-0.855-4.544-2.476-4.676C716.195,237.519,714.678,239.397,714.423,241.846z"/>
							<path fill="#1A1635" d="M728.17,235.923c0,0-4.521-4.278-8.561-5.134c-4.042-0.856-5.967,0-5.967,0l-1.729-4.96
								c0,0,5.385-0.856,10.389,1.024c5.005,1.883,7.218,5.647,7.218,5.647L728.17,235.923z"/>
						</g>
						<g>
							<path fill="#1A1635" d="M695.641,240.938c-0.243,2.338,0.703,4.327,2.111,4.441c1.406,0.116,2.745-1.687,2.988-4.023
								c0.24-2.339-0.703-4.327-2.114-4.441C697.219,236.798,695.881,238.601,695.641,240.938z"/>
							<path fill="#1A1635" d="M704.144,225.416l-0.946,5.126c0,0-2.039-0.61-5.906,0.732c-1.068,0.373-2.125,1.014-3.106,1.736
								c-0.905-0.078-0.738-3.627,0-5.383C698.809,225.245,704.144,225.416,704.144,225.416z"/>
						</g>
						<path fill="#CE8865" d="M703.197,230.542c0,0,1.988,5.302,1.654,7.954c-0.351,2.781-8.526,16.821-8.754,19.816
							c-0.232,2.997,9.218,4.609,9.218,4.609s-11.896,1.426-11.983-4.146c-0.061-3.772,9.99-19.096,10.219-20.479
							C703.782,236.914,703.197,230.542,703.197,230.542z"/>
						<g>
							<path fill="#CE8865" d="M723.892,265.819c-5.198,1.694-10.362,3.36-15.69,3.627c-2.624,0.145-5.393,0.139-7.818-0.549
								c-2.46-0.792-5.008-1.922-6.891-3.719l-0.026-0.024c-0.156-0.15-0.403-0.145-0.556,0.013
								c-0.137,0.145-0.145,0.365-0.022,0.517c1.821,2.271,4.313,3.752,6.978,4.772c2.799,1.056,5.64,0.985,8.454,0.955
								c2.817-0.175,5.594-0.742,8.256-1.571c2.662-0.855,5.198-1.992,7.628-3.301c0.194-0.103,0.267-0.342,0.16-0.534
								C724.271,265.834,724.07,265.76,723.892,265.819z"/>
							<path fill="#CE8865" d="M723.645,268.743c0.197-0.831,0.601-1.65,0.41-2.314c0.039-0.666-0.635-0.977-1.452-1.333
								c-0.11-0.038-0.171-0.16-0.133-0.272c0.022-0.074,0.106-0.129,0.183-0.143c0.467-0.049,0.984-0.046,1.456,0.251
								c0.487,0.238,0.901,0.789,0.992,1.359c-0.011,1.126-0.406,2.02-1.11,2.683c-0.084,0.08-0.221,0.076-0.3-0.009
								c-0.05-0.054-0.069-0.128-0.054-0.194L723.645,268.743z"/>
						</g>
					</g>
				</g>
			</g>
			<path fill="#EABF73" d="M501.156,535.563c-1.438,2.556-3.666,2.556-5.757,1.385c-2.092-1.176-3.255-3.077-1.821-5.633
				c1.434-2.559,4.92-4.803,7.012-3.627C502.685,528.858,502.585,533.004,501.156,535.563z"/>
			<path fill="#EABF73" d="M507.096,540.465c-1.438,2.555-3.666,2.555-5.758,1.384c-2.091-1.175-3.255-3.076-1.821-5.632
				s4.921-4.803,7.013-3.628C508.624,533.76,508.525,537.909,507.096,540.465z"/>
			<path fill="#EABF73" d="M513.812,544.868c-1.434,2.556-3.662,2.556-5.754,1.384c-2.091-1.175-3.255-3.076-1.821-5.632
				c1.434-2.56,4.921-4.803,7.012-3.628C515.34,538.164,515.245,542.309,513.812,544.868z"/>
			<path fill="#EABF73" d="M521.672,548.313c-1.43,2.556-3.662,2.556-5.754,1.384c-2.091-1.175-3.255-3.076-1.821-5.632
				s4.921-4.803,7.012-3.628C523.204,541.609,523.109,545.758,521.672,548.313z"/>
			<g>
				<g>
					<path fill="#1A1635" d="M381.597,952.08c0.205-0.817,36.586-1.315,36.586-1.315s5.936,11.149,19.086,19.124
						c18.261,11.073,41.051,15.404,44.348,20.234c2.491,3.646,0.422,8.876,0.422,8.876s-20.839,4.989-41.705,1.958
						c-16.336-2.373-29.114-8.027-29.114-8.027l-1.08,4.696c-10.013,2.738-20.185,1.669-30.491-2.347
						C379.649,995.279,373.596,984.008,381.597,952.08z"/>
					<path fill="#292551" d="M481.617,990.123c-3.297-4.83-26.087-9.161-44.348-20.234c-13.15-7.975-19.086-19.124-19.086-19.124
						s-6.67,0.091-14.306,0.259c0.27,13.313,10.48,23.573,17.671,30.764C442.559,994.394,481.766,990.34,481.617,990.123z"/>
				</g>
				<g>
					<path fill="#14273A" d="M332.309,621.007c0,0,25.593,133.953,30.792,159.952c5.198,26-1.08,55.205-0.335,76.748
						c0.742,21.542,12.625,92.369,12.625,92.369c-1.305,12.252,47.5,17.843,48.805,5.59c0,0-1.263,4.548-2.75-66.02
						c-1.483-70.568,5.374-88.871,8.343-136.409c2.97-47.542-17.257-168.63-17.257-168.63s-14.854-33.427-47.539-23.026
						C332.309,571.979,332.309,621.007,332.309,621.007z"/>
					<path opacity="0.5" fill="#0A1721" d="M381.452,607.713c2.708,0,12.195,107.052,3.388,141.604
						c-8.811,34.556-27.102,17.614-29.814,1.354C352.315,734.409,328.605,607.713,381.452,607.713z"/>
					<g opacity="0.5">
						<path fill="#0A1721" d="M390.332,961.146c-0.491-3.38-12.005-83.021-12.005-99.107c0-8.077,2.016-26.137,4.149-45.257
							c2.087-18.721,4.248-38.085,4.248-46.496c0-16.523-19.581-147.852-19.778-149.176l2.084-0.312
							c0.81,5.411,19.805,132.812,19.805,149.487c0,8.525-2.167,27.946-4.263,46.729c-2.031,18.219-4.134,37.062-4.134,45.024
							c0,15.934,11.865,97.979,11.983,98.804L390.332,961.146z"/>
					</g>
				</g>
			</g>
			<g>
				<g>
					<path fill="#1A1635" d="M275.822,961.188c0,0,8.663,10.332,34.214,4.545c0,0,9.872,21.896,21.006,28.418
						c36.807,21.562,43.709,19.329,44.892,25.262c1.331,6.689-20.767,13.576-43.808,12.861
						c-23.041-0.716-37.655-16.478-37.655-16.478l-2.164,2.913c0,0-15.485-3.115-22.17-9.45
						C263.452,1002.923,275.822,961.188,275.822,961.188z"/>
					<path fill="#292551" d="M324.506,1011.319c16.972,4.853,32.548,6.884,47.534,3.758c-5.065-2.696-16.264-6.438-40.998-20.927
						c-11.134-6.521-21.01-28.418-21.01-28.418c-7.233,1.639-13.07,1.958-17.782,1.616
						C296.905,986.092,305.632,1003.771,324.506,1011.319z"/>
				</g>
				<g>
					<path fill="#223B59" d="M282.816,606.53c0.11,2.966,12.021,130.316,5.727,170.767c-6.298,40.45-22.904,53.589-19.318,164.858
						l2.092,24.083c-2.126,11.674,43.679,20.018,45.804,8.343c0,0-5.065-43.705,6.647-95.56
						c11.713-51.858,63.023-195.539,49.611-275.967C359.966,522.622,280.139,533.033,282.816,606.53z"/>
					<g>
						<path opacity="0.5" fill="#0A1721" d="M281.363,976.33c-0.574,0-1.042-0.456-1.054-1.034
							c-0.015-0.787-1.438-79.116,1.479-106.819c3.658-34.773,16.725-80.459,20.642-93.636c7.944-26.729-0.692-152.872-0.78-154.142
							c-0.042-0.578,0.396-1.088,0.981-1.122c0.559-0.095,1.084,0.396,1.122,0.978c0.361,5.206,8.75,127.792,0.696,154.887
							c-3.902,13.131-16.922,58.661-20.565,93.256c-2.901,27.573-1.479,105.77-1.464,106.557c0.011,0.586-0.453,1.065-1.035,1.076
							C281.378,976.33,281.371,976.33,281.363,976.33z"/>
					</g>
				</g>
			</g>
			<path opacity="0.3" fill="#353440" d="M280.055,622.958c1.133,0,70.564,31.022,79.641,26.482
				c9.081-4.54,12.572-33.608,12.572-33.608l30.532-1.027c0,0,2.62,20.28,5.644,21.037c3.027,0.757,11.94-2.293,11.94-10.233
				c0-7.944-1.894-30.263-1.894-30.263L300.1,587.782L280.055,622.958z"/>
			<g>
				<path fill="#FFFFFF" d="M334.519,303.578c0,0-41.568,15.822-51.498,28.54c-9.925,12.72-14.892,41.26-8.997,71.043
					c5.894,29.781,17.945,104.622,17.945,104.622s-13.876,32.715-15.82,64.271c-1.666,27.061,139.55,50.786,144.182,26.699
					c4.103-21.353-13.716-95.472-16.063-96.465c0,0,9.423-76.962,8.64-94.238c-0.787-17.277-12.568-57.328-21.992-69.109
					C381.494,327.161,334.519,303.578,334.519,303.578z"/>
				
					<ellipse transform="matrix(0.7853 0.6191 -0.6191 0.7853 275.3063 -146.0269)" fill="#FCEC9D" cx="348.185" cy="323.905" rx="31.661" ry="16.207"/>
				<g>
					<path fill="#126466" d="M320.87,309.163c0,0,31.122,21.339,44.333,64.972c16.815,55.536,14.226,103.924,13.614,129.751
						c-0.753,31.661-13.523,131.47-22.539,138.23c-6.286,4.716-90.894-17.546-91.229-26.665
						c-0.224-6.001,22.866-116.715,20.5-123.023s-21.474-117.376-16.93-143.665C271.967,329.392,293.099,315.166,320.87,309.163z"/>
					<g>
						<path fill="#0C4C4A" d="M321.049,309.539c-6.18,3.116-12.142,6.74-17.721,10.83c-5.56,4.079-10.804,8.771-14.557,14.46
							c-4.092,5.685-3.324,12.884-3.137,19.761c0.289,6.923,0.947,13.852,1.666,20.763c2.917,27.658,7.024,55.201,11.1,82.731
							l3.004,20.664l1.445,10.355c0.24,1.709,0.46,3.483,0.582,5.284c-0.103,1.861-0.308,3.635-0.574,5.341
							c-2.02,13.823-4.544,27.498-6.967,41.214c-4.883,27.414-10.077,54.768-15.428,82.091l-0.817-0.152l14.587-82.231
							c2.351-13.709,4.811-27.437,6.743-41.172c0.266-1.736,0.437-3.42,0.532-5.035c-0.125-1.666-0.342-3.351-0.593-5.084
							l-1.494-10.319l-3.104-20.647c-3.939-27.564-7.91-55.136-10.686-82.872c-0.688-6.934-1.312-13.878-1.567-20.866
							c-0.224-3.483-0.137-6.999,0.004-10.528c0.262-3.622,1.476-7.107,3.479-10.083c4.023-5.894,9.427-10.553,15.112-14.601
							c5.708-4.056,11.735-7.6,18.033-10.659C321.189,308.549,321.547,309.302,321.049,309.539z"/>
						<path opacity="0.5" fill="#2D3D3B" d="M270.506,373.375c0,0,36.628,120.017,56.349,136.922
							c19.722,16.903,52.402,2.818,52.402,2.818L270.506,373.375z"/>
					</g>
					<polygon fill="#0C4C4A" points="309.165,545.633 360.4,541.644 359.963,538.19 308.827,542.1 					"/>
				</g>
				<path fill="#126466" d="M354.399,315.068c0,0,26.585,27.53,36.567,64.465c9.982,36.933,5.354,89.259,6.354,111.22
					c0.996,21.959,10.773,137.89,13.766,138.887c2.997,1,20.174-8.123,19.174-13.116c-0.997-4.989-19.965-119.783-19.965-130.762
					c0-10.98,6.925-71.785,5.99-89.839c-1.624-31.426-10.959-50.818-20.961-64.883C386.723,318.947,354.399,315.068,354.399,315.068
					z"/>
				<path fill="#F7D694" d="M327.692,271.315c0,0.848-5.948,32.381-6.933,37.737c5.784,4.601,7.381,6.187,14.515,13.101
					c10.264,8.138,23.802,16.428,32.86,12.627l1.129-44.542L327.692,271.315z"/>
			</g>
			<g>
				<path fill="#1A1635" d="M328.027,291.379c0,0-11.112-12.812-21.368-34.875c-10.26-22.063-6.161-53.743,22.478-68.224
					s56.25-2.415,64.636,20.904C402.158,232.501,383.183,264.379,328.027,291.379z"/>
				<path fill="#CE8865" d="M332.18,272.355c0,0,4.343,34.044,27.391,39.226c17.691,3.976,12.454-30.412,12.454-30.412
					S373.257,259.179,332.18,272.355z"/>
				<g>
					<path fill="#F7D694" d="M346.326,195.313c0,0,26.98-5.457,40.933,14.03c13.953,19.485,8.168,32.371,8.553,38.06
						c0.388,5.689,8.864,50-11.443,53.321c-22.55,3.687-43.477-10.408-49.782-25.103c0,0-15.941,2.029-20.535-10.212
						c-4.594-12.239,6.758-23.81,15.424-11.412C329.476,253.998,310.104,206.176,346.326,195.313z"/>
					<path fill="#CE8865" d="M326.563,266.184c0,0,1.624-13.693-5.697-12.882c-7.32,0.814-5.83,15.865,3.662,17.9l-1.084-5.018
						H326.563z"/>
				</g>
				<g>
					<path fill="#1A1635" d="M388.377,268.433c0,0-0.198,5.305,3.126,4.675c3.32-0.627,6.373-3.23,7.541-2.154
						c1.167,1.078,2.064,0.359,1.974-1.257C400.93,268.081,401.782,261.349,388.377,268.433z"/>
					<path fill="#1A1635" d="M388.377,268.433c0,0-12.313-2.147-19.394-2.687c-6.104-0.466-11.214,1.285-14.135,12.967
						c-2.92,11.682,3.351,2.385,3.351,2.385s3.076-7.642,6.929-9.159c3.856-1.52,16.591,4.322,20.447,2.568
						C389.427,272.757,388.377,268.433,388.377,268.433z"/>
				</g>
				<path fill="#1A1635" d="M329.476,253.998c0,0,1.708,5.63,1.905,7.423s4.78,0.2,2.392-11.155
					c-2.392-11.355,5.179-20.32,5.776-26.695c0.597-6.376-4.343-9.968-4.822-13.088c0,0-1.799-7.192,17.789-5.78
					c19.584,1.411,30.35,2.824,34.054-2.647c3.708-5.47,7.412-23.997-30.171-22.586
					C318.813,180.882,309.256,222.832,329.476,253.998z"/>
				<g>
					<g>
						<path fill="#1A1635" d="M376.398,247.415c0.254,2.451-0.856,4.544-2.476,4.678c-1.62,0.131-3.142-1.748-3.393-4.196
							c-0.254-2.451,0.852-4.544,2.476-4.678C374.626,243.088,376.144,244.966,376.398,247.415z"/>
						<path fill="#1A1635" d="M362.651,241.492c0,0,4.521-4.278,8.563-5.134c4.039-0.855,5.963,0,5.963,0l1.734-4.96
							c0,0-5.389-0.856-10.393,1.027c-5.001,1.88-7.214,5.645-7.214,5.645L362.651,241.492z"/>
					</g>
					<g>
						<path fill="#1A1635" d="M395.184,246.506c0.24,2.338-0.703,4.326-2.114,4.442c-1.407,0.116-2.745-1.687-2.985-4.025
							c-0.244-2.337,0.704-4.326,2.11-4.439C393.602,242.367,394.94,244.17,395.184,246.506z"/>
						<path fill="#1A1635" d="M386.681,230.983l0.943,5.128c0,0,2.038-0.61,5.909,0.732c1.069,0.371,2.122,1.013,3.104,1.736
							c0.909-0.078,0.737-3.628,0-5.383C392.012,230.814,386.681,230.983,386.681,230.983z"/>
					</g>
					<path fill="#CE8865" d="M387.624,236.111c0,0-1.989,5.299-1.654,7.954c0.35,2.782,8.526,16.822,8.754,19.816
						c0.232,2.997-9.214,4.609-9.214,4.609s11.891,1.424,11.982-4.147c0.057-3.772-9.99-19.096-10.222-20.478
						C387.042,242.483,387.624,236.111,387.624,236.111z"/>
					<g>
						<path fill="#CE8865" d="M366.929,272.746c5.199,1.694,10.363,3.36,15.69,3.627c2.624,0.145,5.392,0.139,7.818-0.547
							c2.46-0.794,5.008-1.924,6.891-3.719l0.027-0.026c0.156-0.148,0.407-0.143,0.555,0.013c0.137,0.145,0.144,0.365,0.023,0.517
							c-1.822,2.272-4.313,3.751-6.979,4.774c-2.799,1.054-5.64,0.985-8.453,0.955c-2.818-0.177-5.59-0.744-8.256-1.573
							c-2.658-0.855-5.199-1.99-7.629-3.299c-0.19-0.103-0.262-0.342-0.159-0.534C366.549,272.763,366.754,272.688,366.929,272.746z
							"/>
						<path fill="#CE8865" d="M366.831,275.902c-0.704-0.662-1.099-1.557-1.107-2.683c0.088-0.57,0.502-1.122,0.989-1.359
							c0.476-0.297,0.989-0.298,1.46-0.251c0.118,0.012,0.202,0.116,0.19,0.234c-0.007,0.078-0.076,0.15-0.144,0.181
							c-0.818,0.357-1.491,0.667-1.449,1.333c-0.194,0.664,0.213,1.483,0.407,2.314l0.007,0.028c0.027,0.114-0.045,0.23-0.16,0.257
							C366.952,275.972,366.88,275.949,366.831,275.902z"/>
					</g>
				</g>
				<path fill="#1A1635" d="M331.381,261.421c0,0-4.088,50.529,51.661,47.249c11.469-0.675,21.592-7.86,22.022-22.333
					c0.514-17.253-7.035-18.2-7.035-18.2l-0.262,9.847c0,0,1.262,4.748-10.07,6.952c-11.332,2.203-43.439-2.518-53.513-25.182
					L331.381,261.421z"/>
				<circle fill="#1A1635" cx="306.347" cy="198.028" r="14.717"/>
			</g>
			<g>
				<path fill="#F7D694" d="M498.38,498.978c0,0-11.42,12.752-8.427,28.378c0,0,27.338,19.645,30.924,21.485s6.13,2.187,7.712,1.643
					c1.586-0.543,1.81-2.506,3.742-3.445c1.936-0.939,4.521,1.252,6.156,0.281c1.639-0.965,1.267-3.703,2.864-4.532
					c1.597-0.829,5.905,0.665,7.875-0.347c1.966-1.008,1.666-6.472,2.487-7.646c0.817-1.172,3.068,1.209,6.772-2.696
					c3.704-3.906-26.193-31.792-26.193-31.792l5.324-6.672c0,0,11.586,4.004,13.907,1.85c2.319-2.154,1.825-7.456,1.825-7.456
					s-20.839-9.98-26.832-5.661C519.744,487.252,514.424,488.83,498.38,498.978z"/>
				<path fill="#EABF73" d="M538.487,482.706c-4.198,0.279-13.659,3.329-15.515,4.339c-2.742,1.493-13.907,13.508-13.184,14.783
					c0.723,1.274,6.997,4.1,14.199-0.334c7.207-4.436,4.518-3.577,4.518-3.577l29.054,29.196c4.438-2.704,7.989-7.807,11.093-14.682
					c6.887-3.293-5.537-27.694-12.42-24.401C556.231,488.03,540.515,482.573,538.487,482.706z"/>
				<path fill="#DDD6A6" d="M491.725,494.059c0,0,5.605,0.468,6.396,2.01c1.281,2.499,1.46,11.144-0.183,19.727
					c-1.646,8.587-6.396,14.796-7.674,15.53c-1.278,0.73-6.21-0.734-6.21-0.734L491.725,494.059z"/>
				<path fill="#197F7F" d="M300.898,325.925c-2.981-0.462-35.723-1.968-34.518,32.415c1.206,34.383,66.251,140.948,78.904,146.371
					c37.187,15.938,136.759,28.258,136.759,28.258c9.883,2.148,18.934-39.473,9.051-41.621c0,0-106.192-24.469-112.224-31.104
					s-42.986-105.968-50.223-114.412C328.647,345.831,313.086,327.812,300.898,325.925z"/>
				<path opacity="0.5" fill="#2D3D3B" d="M376.756,461.034c-3.678,2.819-7.268,5.527-10.431,8.756
					c-3.305,3.076-6.104,6.598-9.02,10.199c-0.213,0.266-0.601,0.308-0.867,0.095c-0.209-0.169-0.277-0.453-0.194-0.692
					c1.643-4.495,4.59-8.398,7.936-11.804c3.495-3.255,7.473-6.1,12.006-7.628c0.323-0.11,0.673,0.064,0.779,0.386
					C377.052,460.603,376.957,460.878,376.756,461.034z"/>
				<path opacity="0.5" fill="#2D3D3B" d="M378.501,463.451c-1.205,4.493-3.061,8.689-4.863,12.913
					c-2,4.129-3.944,8.286-6.553,12.142c-0.19,0.282-0.574,0.356-0.855,0.166c-0.224-0.152-0.315-0.424-0.251-0.669
					c1.198-4.497,3.058-8.693,4.864-12.915c2-4.13,3.947-8.284,6.552-12.142c0.19-0.281,0.57-0.355,0.855-0.166
					C378.475,462.93,378.566,463.203,378.501,463.451z"/>
			</g>
			<g>
				<path opacity="0.3" fill="#353440" d="M673.493,602.202c0,0,10.488,20.067,21.437,21.893
					c10.944,1.821,11.857-11.404,11.857-11.404s4.103,14.595,8.662,15.052c4.563,0.456,85.076-11.721,94.305-15.439
					c9.227-3.716-5.365-44.307-5.365-44.307l-98.971-3.194L673.493,602.202z"/>
				<g>
					<path fill="#B71D67" d="M808.926,481.481c2.277-9.874,37.104-111.084,31.787-137.672
						c-5.316-26.587-67.352-45.028-67.352-45.028s-46.412,99.775-61.543,135.719c-2.979-22.174,11.514-119.582,11.514-119.582
						l-1.125-9.029c0,0-18.576,10.84-24.741,16.445c-7.818,7.107-20.451,55.786-20.451,68.579c0,12.792,0.552,62.905,0.552,79.251
						s-17.06,121.535-16.348,125.086c0.711,3.556,32.749,26.707,38.434,21.729c1.776-1.552,4.286-17.433,6.72-39.146
						c2.807,24.467,7.264,38.735,9.637,41.45c5.315,6.077,102.792-14.743,105.831-21.58
						C824.878,590.866,806.647,491.357,808.926,481.481z"/>
					<polygon opacity="0.2" fill="#652C6B" points="713.807,315.247 697.69,347.476 710.46,347.171 695.865,356.292 709.947,461.48 
						716.236,344.131 					"/>
					<path opacity="0.2" fill="#652C6B" d="M709.947,461.48c1.954-0.561,62.783-100.408,62.783-100.408l-5.837-10.446l10.754,1.229
						l12.337-46.669l-14.182,0.28l-21.504,38.71L709.947,461.48z"/>
					<polygon fill="#8C1559" points="725.922,539.753 777.111,535.266 776.644,531.813 725.55,536.225 					"/>
					<polygon fill="#8C1559" points="667.843,531.501 691.857,537.749 692.58,534.342 669.539,528.333 					"/>
					<path fill="#8C1559" d="M771.096,302.769c12.693,5.563,25.266,11.503,36.909,19.192c2.917,1.913,5.655,4.126,8.173,6.636
						l1.727,2.08c0.498,0.774,0.886,1.658,1.315,2.491c0.513,1.947,0.331,3.69,0.251,5.453c-0.566,6.991-1.867,13.8-3.138,20.62
						c-5.347,27.211-11.914,54.121-18.166,81.094l-4.727,20.212l-2.198,10.125c-0.612,3.441-1.514,6.665-1.175,10.053
						c0.776,13.759,2.008,27.587,3.138,41.372l7.076,82.768c0.023,0.232-0.148,0.434-0.38,0.452
						c-0.225,0.02-0.426-0.147-0.448-0.372c-2.818-27.552-5.495-55.114-7.922-82.703c-1.201-13.804-2.502-27.559-3.357-41.444
						c-0.129-1.696-0.096-3.633,0.231-5.353c0.271-1.737,0.59-3.447,0.925-5.152l2.156-10.182l4.631-20.257
						c6.389-26.944,13.094-53.82,18.569-80.933c1.297-6.776,2.628-13.595,3.214-20.405c0.105-1.673,0.22-3.457-0.148-4.868
						c-0.385-0.692-0.682-1.415-1.107-2.095l-1.578-1.919c-2.369-2.388-5.034-4.558-7.887-6.474
						c-11.366-7.756-23.858-13.899-36.415-19.625c-0.213-0.089-0.312-0.334-0.221-0.545
						C770.632,302.778,770.887,302.683,771.096,302.769z"/>
					<path opacity="0.2" fill="#652C6B" d="M787.976,351.712c0,0-15.478,119.823,7.454,122.116
						c22.934,2.293,33.825-54.465,33.825-54.465L787.976,351.712z"/>
					<path fill="#D62B85" d="M789.984,305.185l-23.482-16.057l1.825,8.037l-56.559,136.901l6.7-88.456l5.035-30.85l-1.461-12.097
						l-10.184,9.263l-13.222,31.479l12.275,0.943l-11.96,6.611l10.275,110.29c0,0,0.635,0.279,0.726,0.264l57.277-107.352
						l-9.499-8.404l15.348,1.827C777.176,327.015,784.861,311.313,789.984,305.185z"/>
					<path fill="#8C1559" d="M709.947,461.48l-2.065,30.833l-0.897,29.114c-0.803,19.401-0.908,38.818-1.106,58.239
						c0,0.187-0.187,0.335-0.419,0.331c-0.224-0.004-0.406-0.152-0.418-0.331c-0.41-9.72-0.608-19.443-0.536-29.159
						c0.038-9.721,0.138-19.437,0.373-29.148c0.821-19.417,2.456-40.563,4.236-59.928c0.015-0.187,0.217-0.323,0.444-0.307
						C709.783,461.143,709.954,461.3,709.947,461.48z"/>
					<g>
						<ellipse opacity="0.2" fill="#652C6B" cx="713.719" cy="470.084" rx="3.358" ry="5.167"/>
						<path fill="#D62B85" d="M716.389,468.521c0,2.853-1.506,5.166-3.357,5.166c-1.856,0-3.362-2.313-3.362-5.166
							c0-2.854,1.506-5.168,3.362-5.168C714.883,463.354,716.389,465.668,716.389,468.521z"/>
					</g>
					<g>
						<ellipse opacity="0.2" fill="#652C6B" cx="711.924" cy="517.123" rx="3.358" ry="5.168"/>
						<path fill="#D62B85" d="M714.594,515.56c0,2.856-1.506,5.168-3.361,5.168c-1.853,0-3.358-2.312-3.358-5.168
							c0-2.852,1.506-5.168,3.358-5.168C713.088,510.392,714.594,512.708,714.594,515.56z"/>
					</g>
					<g>
						<ellipse opacity="0.2" fill="#652C6B" cx="710.502" cy="564.973" rx="3.357" ry="5.168"/>
						<path fill="#D62B85" d="M713.168,563.41c0,2.853-1.502,5.164-3.357,5.164c-1.856,0-3.358-2.312-3.358-5.164
							c0-2.855,1.502-5.168,3.358-5.168C711.666,558.242,713.168,560.555,713.168,563.41z"/>
					</g>
				</g>
			</g>
			<g>
				<g>
					<path fill="#F7D694" d="M785.413,648.858c0,0,2.456,9.896,5.069,10.651c2.615,0.761,5.187-4.046,4.799-9.895
						C794.95,644.714,785.413,648.858,785.413,648.858z"/>
					<g>
						<g>
							<path fill="#0C4C4A" d="M906.71,801.551l-186.222,23.639c-4.477,0.171-10.709-19.756-10.88-24.231l-4.563-119.468
								c-0.171-4.479,3.32-8.248,7.8-8.42l188.686-7.206c4.476-0.171,16.307,7.773,16.478,12.249l-3.498,115.019
								C914.681,797.611,911.189,801.38,906.71,801.551z"/>
							<path fill="#126466" d="M917.072,819.257l-193.048,7.37c-4.13,0.159-7.609-3.065-7.765-7.195l-5.005-130.979
								c-0.155-4.13,3.065-7.609,7.198-7.77l193.045-7.369c4.133-0.16,7.609,3.064,7.769,7.198l5.001,130.976
								C924.427,815.621,921.202,819.098,917.072,819.257z"/>
							<path opacity="0.5" fill="#FFFFFF" d="M720.689,818.116c-1.133-26.886-2.133-53.775-2.966-80.668l-1.175-40.34l-0.137-5.043
								l-0.069-2.54c-0.038-1.487,0.7-2.97,1.905-3.837c0.602-0.438,1.313-0.73,2.046-0.845c0.829-0.091,0.955-0.061,1.464-0.099
								l2.521-0.125l5.039-0.251l20.15-1.004l80.642-3.495c26.882-1.091,53.775-2.016,80.673-2.807l0.075,1.666
								c-26.851,1.733-53.71,3.335-80.577,4.769l-80.614,4.08l-20.159,0.891l-5.038,0.22l-2.521,0.114l-1.054,0.05
								c-0.095,0.015-0.182,0.049-0.266,0.103c-0.164,0.121-0.259,0.304-0.259,0.506l0.054,2.506l0.109,5.043l0.814,40.351
								c0.49,26.901,0.813,53.806,1.008,80.714L720.689,818.116z"/>
						</g>
						<g>
							<path fill="#126466" d="M777.609,673.843l-0.167-19.387c-0.058-6.263,4.849-11.45,11.104-11.75l47.545-2.271
								c4.427-0.213,8.154,3.277,8.229,7.712l0.403,23.258c0.038,2.251-8.4,2.399-8.438,0.148l-0.335-19.375
								c-0.03-1.799-1.543-3.218-3.342-3.13l-40.888,1.954c-3.278,0.156-5.845,2.875-5.818,6.157l0.148,16.606
								C786.074,676.402,777.637,676.479,777.609,673.843z"/>
						</g>
					</g>
					<path fill="#F7D694" d="M809.754,612.303c0,0-11.058,10.868-14.416,13.215c-3.354,2.342-6.065,8.514-6.898,11.202
						c-0.38,1.221-2.076,6.374-2.076,6.374s12.199-0.783,13.625-0.97c2.617-0.347,0.24,10.674-0.27,12.705
						c-0.51,2.034-5.567,4.05-3.586,11.96c0.685,2.73,4.221,5.012,7.807,2.699c2.336,2.909,4.975,3.796,8.115,1.369
						c3.336,2.373,6.781,2.612,10.371,0.068c0,0,7.822,1.837,11.164-9.126c3.297-10.812,1.393-44.417,1.393-44.417L809.754,612.303z
						"/>
				</g>
				<g>
					<path fill="#DDD6A6" d="M838.96,620.17c0,0-0.73,5.575-2.309,6.294c-2.556,1.164-11.199,0.932-19.698-1.114
						s-14.478-7.084-15.146-8.396c-0.673-1.312,1.023-6.168,1.023-6.168L838.96,620.17z"/>
					<path fill="#D62B85" d="M840.713,337.845c20.68,27.496,39.316,133.667,35.054,146.76
						c-4.263,13.091-33.495,133.432-33.495,133.432c-2.418,9.822-43.777-0.369-41.354-10.188c0,0,21.249-116.224,21.112-125.191
						c-0.137-8.967-30.9-105.07-33.521-115.88C783.23,345.024,813.104,301.131,840.713,337.845z"/>
					<g>
						<path fill="#8C1559" d="M825.741,480.861c3.929-2.458,7.72-4.873,11.854-6.704c4.038-2.019,8.316-3.405,12.708-4.877
							c0.328-0.106,0.502-0.454,0.396-0.779c-0.084-0.257-0.327-0.42-0.582-0.424c-4.784-0.034-9.473,1.36-13.835,3.301
							c-4.274,2.131-8.328,4.862-11.347,8.574c-0.217,0.264-0.18,0.652,0.087,0.867
							C825.231,480.989,825.524,480.997,825.741,480.861z"/>
						<path fill="#8C1559" d="M827.392,483.341c4.632,0.449,9.214,0.177,13.796-0.032c4.571-0.428,9.146-0.795,13.672-1.884
							c0.33-0.08,0.532-0.415,0.452-0.746c-0.061-0.262-0.285-0.445-0.54-0.47c-4.632-0.451-9.21-0.179-13.797,0.032
							c-4.57,0.43-9.142,0.798-13.667,1.886c-0.331,0.08-0.536,0.413-0.456,0.743C826.916,483.134,827.137,483.316,827.392,483.341z
							"/>
					</g>
				</g>
			</g>
		</g>
	</g>
</g>
</svg>
